<svg width="82" height="80" viewBox="0 0 82 80" fill="none" xmlns="http://www.w3.org/2000/svg">
<g id="Group 5360">
<g id="Group">
<path id="Vector" d="M2.63471 20.8743L41.0879 1.67279L79.4073 20.6067L79.4324 24.0941H2.57617L2.63471 20.8743Z" fill="#018725"/>
<g id="Group_2">
<path id="Vector_2" d="M3.47939 22.3211C4.75894 21.6771 6.04684 21.0416 7.32639 20.3976C10.3789 18.8755 13.4314 17.3451 16.4839 15.823C20.1887 13.9748 23.8936 12.1266 27.59 10.2783C30.7931 8.681 33.9961 7.08366 37.1908 5.47796C38.7463 4.7002 40.3353 3.97261 41.8573 3.14467C41.8824 3.13631 41.8992 3.11958 41.9242 3.11122C41.3639 3.11122 40.7952 3.11122 40.2349 3.11122C41.5061 3.73845 42.7856 4.37404 44.0568 5.00127C47.101 6.50661 50.1535 8.01196 53.1976 9.5173C56.8857 11.3404 60.5654 13.1552 64.2535 14.9784C67.4482 16.559 70.6429 18.1396 73.8459 19.7118C75.3847 20.4729 76.9152 21.3092 78.4874 22.0033C78.5125 22.0117 78.5292 22.0284 78.5543 22.0368C78.2783 21.5517 78.0024 21.075 77.7264 20.59C77.7347 21.7524 77.7431 22.9149 77.7515 24.0773C78.3118 23.517 78.8638 22.9651 79.4241 22.4047C78.7383 22.4047 78.0442 22.4047 77.3584 22.4047C75.4934 22.4047 73.6285 22.4047 71.7635 22.4047C69.0121 22.4047 66.2523 22.4047 63.5009 22.4047C60.1389 22.4047 56.777 22.4047 53.4234 22.4047C49.7437 22.4047 46.0639 22.4047 42.3842 22.4047C38.6543 22.4047 34.9244 22.4047 31.1945 22.4047C27.7322 22.4047 24.2699 22.4047 20.7992 22.4047C17.8722 22.4047 14.9451 22.4047 12.018 22.4047C9.91056 22.4047 7.80308 22.4047 5.70396 22.4047C4.70876 22.4047 3.70519 22.3796 2.70999 22.4047C2.66818 22.4047 2.62636 22.4047 2.57619 22.4047C3.13651 22.9651 3.68847 23.517 4.24879 24.0773C4.26552 23.0069 4.29061 21.9364 4.30733 20.8659C4.32406 19.9878 3.52957 19.1515 2.63473 19.1933C1.71479 19.2351 0.978847 19.9293 0.962121 20.8659C0.945395 21.9364 0.920306 23.0069 0.90358 24.0773C0.886854 24.9805 1.68134 25.7499 2.57619 25.7499C3.26195 25.7499 3.95609 25.7499 4.64185 25.7499C6.50681 25.7499 8.37177 25.7499 10.2367 25.7499C12.9882 25.7499 15.748 25.7499 18.4994 25.7499C21.8613 25.7499 25.2233 25.7499 28.5768 25.7499C32.2566 25.7499 35.9363 25.7499 39.616 25.7499C43.346 25.7499 47.0759 25.7499 50.8058 25.7499C54.2681 25.7499 57.7304 25.7499 61.201 25.7499C64.1281 25.7499 67.0552 25.7499 69.9822 25.7499C72.0897 25.7499 74.1972 25.7499 76.2963 25.7499C77.2915 25.7499 78.2951 25.7667 79.2903 25.7499C79.3321 25.7499 79.3739 25.7499 79.4241 25.7499C80.3273 25.7499 81.105 24.9805 81.0967 24.0773C81.0883 22.9149 81.08 21.7524 81.0716 20.59C81.0716 20.0296 80.7622 19.4024 80.2437 19.1432C78.9557 18.5076 77.6595 17.872 76.3716 17.228C73.3023 15.7143 70.2331 14.2006 67.1722 12.6785C63.4507 10.8387 59.7291 8.9988 56.0076 7.15893C52.8296 5.58668 49.66 4.02279 46.4821 2.45054C44.9768 1.70623 43.4798 0.945197 41.9661 0.217613C41.3472 -0.0834561 40.7869 -0.0667302 40.168 0.234339C39.9924 0.317969 39.8168 0.409963 39.6411 0.493593C38.8466 0.895018 38.0438 1.28808 37.2493 1.68951C34.339 3.14467 31.4203 4.59984 28.5099 6.05501C24.8386 7.88651 21.1588 9.72638 17.4875 11.5579C14.1506 13.2221 10.8221 14.8864 7.48528 16.5506C5.67051 17.4538 3.85573 18.3654 2.04931 19.2686C1.96568 19.3104 1.88205 19.3522 1.79842 19.394C1.0123 19.7871 0.727956 20.9579 1.19629 21.6855C1.70643 22.5218 2.64309 22.7393 3.47939 22.3211Z" fill="#018725"/>
</g>
</g>
<g id="Group_3">
<path id="Vector_3" d="M78.8386 68.9952H3.16992V78.3283H78.8386V68.9952Z" fill="#343D47"/>
<g id="Group_4">
<path id="Vector_4" d="M3.16996 79.9925C3.84737 79.9925 4.52477 79.9925 5.20218 79.9925C7.03368 79.9925 8.85682 79.9925 10.6883 79.9925C13.4147 79.9925 16.1327 79.9925 18.859 79.9925C22.1708 79.9925 25.4825 79.9925 28.7943 79.9925C32.4238 79.9925 36.045 79.9925 39.6746 79.9925C43.3376 79.9925 46.9922 79.9925 50.6553 79.9925C54.0674 79.9925 57.4795 79.9925 60.8916 79.9925C63.7768 79.9925 66.6621 79.9925 69.5473 79.9925C71.6214 79.9925 73.6954 79.9925 75.7694 79.9925C76.7563 79.9925 77.7431 80.0093 78.7216 79.9925C78.7634 79.9925 78.8052 79.9925 78.847 79.9925C79.7502 79.9925 80.5196 79.2232 80.5196 78.3199C80.5196 75.5936 80.5196 72.8756 80.5196 70.1493C80.5196 69.7646 80.5196 69.3799 80.5196 68.9868C80.5196 68.0836 79.7502 67.3142 78.847 67.3142C78.1696 67.3142 77.4922 67.3142 76.8148 67.3142C74.9833 67.3142 73.1602 67.3142 71.3287 67.3142C68.6023 67.3142 65.8843 67.3142 63.158 67.3142C59.8462 67.3142 56.5345 67.3142 53.2227 67.3142C49.5931 67.3142 45.972 67.3142 42.3424 67.3142C38.6794 67.3142 35.0247 67.3142 31.3617 67.3142C27.9496 67.3142 24.5375 67.3142 21.1254 67.3142C18.2401 67.3142 15.3549 67.3142 12.4697 67.3142C10.3956 67.3142 8.32159 67.3142 6.24756 67.3142C5.26072 67.3142 4.27388 67.2975 3.29541 67.3142C3.25359 67.3142 3.21178 67.3142 3.16996 67.3142C2.26675 67.3142 1.49735 68.0836 1.49735 68.9868C1.49735 71.7132 1.49735 74.4311 1.49735 77.1575C1.49735 77.5422 1.49735 77.9269 1.49735 78.3199C1.49735 79.1981 2.26675 80.0344 3.16996 79.9925C4.07317 79.9507 4.84257 79.2566 4.84257 78.3199C4.84257 75.5936 4.84257 72.8756 4.84257 70.1493C4.84257 69.7646 4.84257 69.3799 4.84257 68.9868C4.28224 69.5471 3.73028 70.0991 3.16996 70.6594C3.84737 70.6594 4.52477 70.6594 5.20218 70.6594C7.03368 70.6594 8.85682 70.6594 10.6883 70.6594C13.4147 70.6594 16.1327 70.6594 18.859 70.6594C22.1708 70.6594 25.4825 70.6594 28.7943 70.6594C32.4238 70.6594 36.045 70.6594 39.6746 70.6594C43.3376 70.6594 46.9922 70.6594 50.6553 70.6594C54.0674 70.6594 57.4795 70.6594 60.8916 70.6594C63.7768 70.6594 66.6621 70.6594 69.5473 70.6594C71.6214 70.6594 73.6954 70.6594 75.7694 70.6594C76.7563 70.6594 77.7431 70.6845 78.7216 70.6594C78.7634 70.6594 78.8052 70.6594 78.847 70.6594C78.2867 70.0991 77.7347 69.5471 77.1744 68.9868C77.1744 71.7132 77.1744 74.4311 77.1744 77.1575C77.1744 77.5422 77.1744 77.9269 77.1744 78.3199C77.7347 77.7596 78.2867 77.2077 78.847 76.6473C78.1696 76.6473 77.4922 76.6473 76.8148 76.6473C74.9833 76.6473 73.1602 76.6473 71.3287 76.6473C68.6023 76.6473 65.8843 76.6473 63.158 76.6473C59.8462 76.6473 56.5345 76.6473 53.2227 76.6473C49.5931 76.6473 45.972 76.6473 42.3424 76.6473C38.6794 76.6473 35.0247 76.6473 31.3617 76.6473C27.9496 76.6473 24.5375 76.6473 21.1254 76.6473C18.2401 76.6473 15.3549 76.6473 12.4697 76.6473C10.3956 76.6473 8.32159 76.6473 6.24756 76.6473C5.26072 76.6473 4.27388 76.6306 3.29541 76.6473C3.25359 76.6473 3.21178 76.6473 3.16996 76.6473C2.29184 76.6473 1.45554 77.4167 1.49735 78.3199C1.53917 79.2315 2.2333 79.9925 3.16996 79.9925Z" fill="#343D47"/>
</g>
</g>
<g id="Group_5">
<path id="Vector_5" d="M21.3009 29.8813H11.4075V63.116H21.3009V29.8813Z" fill="#343D47"/>
<g id="Group_6">
<path id="Vector_6" d="M21.3011 28.2087C18.4075 28.2087 15.5139 28.2087 12.6286 28.2087C12.2272 28.2087 11.8174 28.2087 11.416 28.2087C10.5128 28.2087 9.74338 28.9781 9.74338 29.8813C9.74338 30.9852 9.74338 32.0891 9.74338 33.193C9.74338 35.8274 9.74338 38.4701 9.74338 41.1045C9.74338 44.3075 9.74338 47.5106 9.74338 50.7136C9.74338 53.4734 9.74338 56.2332 9.74338 58.993C9.74338 60.3394 9.70993 61.6943 9.74338 63.0491C9.74338 63.0658 9.74338 63.0909 9.74338 63.1076C9.74338 64.0108 10.5128 64.7802 11.416 64.7802C14.3096 64.7802 17.2032 64.7802 20.0885 64.7802C20.4899 64.7802 20.8997 64.7802 21.3011 64.7802C22.2043 64.7802 22.9737 64.0108 22.9737 63.1076C22.9737 62.0037 22.9737 60.8998 22.9737 59.7958C22.9737 57.1615 22.9737 54.5188 22.9737 51.8844C22.9737 48.6814 22.9737 45.4783 22.9737 42.2753C22.9737 39.5155 22.9737 36.7557 22.9737 33.9959C22.9737 32.6494 23.0322 31.2863 22.9737 29.9398C22.9737 29.9231 22.9737 29.898 22.9737 29.8813C22.4134 30.4416 21.8614 30.9936 21.3011 31.5539C22.1792 31.5539 23.0155 30.7845 22.9737 29.8813C22.9319 28.9781 22.2378 28.2087 21.3011 28.2087C20.3979 28.2087 19.6285 28.9781 19.6285 29.8813C19.6285 30.9852 19.6285 32.0891 19.6285 33.193C19.6285 35.8274 19.6285 38.4701 19.6285 41.1045C19.6285 44.3075 19.6285 47.5106 19.6285 50.7136C19.6285 53.4734 19.6285 56.2332 19.6285 58.993C19.6285 60.3394 19.5699 61.7026 19.6285 63.0491C19.6285 63.0658 19.6285 63.0909 19.6285 63.1076C20.1888 62.5473 20.7408 61.9953 21.3011 61.435C18.4075 61.435 15.5139 61.435 12.6286 61.435C12.2272 61.435 11.8174 61.435 11.416 61.435C11.9763 61.9953 12.5283 62.5473 13.0886 63.1076C13.0886 62.0037 13.0886 60.8998 13.0886 59.7958C13.0886 57.1615 13.0886 54.5188 13.0886 51.8844C13.0886 48.6814 13.0886 45.4783 13.0886 42.2753C13.0886 39.5155 13.0886 36.7557 13.0886 33.9959C13.0886 32.6494 13.1471 31.2863 13.0886 29.9398C13.0886 29.9231 13.0886 29.898 13.0886 29.8813C12.5283 30.4416 11.9763 30.9936 11.416 31.5539C14.3096 31.5539 17.2032 31.5539 20.0885 31.5539C20.4899 31.5539 20.8997 31.5539 21.3011 31.5539C22.1792 31.5539 23.0155 30.7845 22.9737 29.8813C22.9319 28.9781 22.2378 28.2087 21.3011 28.2087Z" fill="#343D47"/>
</g>
</g>
<g id="Group_7">
<path id="Vector_7" d="M45.9469 29.8813H36.0535V63.1076H45.9469V29.8813Z" fill="#343D47"/>
<g id="Group_8">
<path id="Vector_8" d="M45.9468 61.4434C43.0532 61.4434 40.1596 61.4434 37.2744 61.4434C36.873 61.4434 36.4632 61.4434 36.0617 61.4434C36.6221 62.0037 37.174 62.5556 37.7343 63.116C37.7343 62.012 37.7343 60.9081 37.7343 59.8042C37.7343 57.1699 37.7343 54.5271 37.7343 51.8928C37.7343 48.6897 37.7343 45.4867 37.7343 42.2837C37.7343 39.5239 37.7343 36.7641 37.7343 34.0043C37.7343 32.6578 37.7929 31.2946 37.7343 29.9482C37.7343 29.9315 37.7343 29.9064 37.7343 29.8896C37.174 30.45 36.6221 31.0019 36.0617 31.5623C38.9553 31.5623 41.849 31.5623 44.7342 31.5623C45.1356 31.5623 45.5454 31.5623 45.9468 31.5623C45.3865 31.0019 44.8346 30.45 44.2742 29.8896C44.2742 30.9936 44.2742 32.0975 44.2742 33.2014C44.2742 35.8358 44.2742 38.4785 44.2742 41.1128C44.2742 44.3159 44.2742 47.5189 44.2742 50.722C44.2742 53.4818 44.2742 56.2416 44.2742 59.0014C44.2742 60.3478 44.2408 61.7026 44.2742 63.0574C44.2742 63.0742 44.2742 63.0992 44.2742 63.116C44.2742 63.9941 45.0436 64.8304 45.9468 64.7886C46.8501 64.7468 47.6195 64.0526 47.6195 63.116C47.6195 62.012 47.6195 60.9081 47.6195 59.8042C47.6195 57.1699 47.6195 54.5271 47.6195 51.8928C47.6195 48.6897 47.6195 45.4867 47.6195 42.2837C47.6195 39.5239 47.6195 36.7641 47.6195 34.0043C47.6195 32.6578 47.6529 31.303 47.6195 29.9482C47.6195 29.9315 47.6195 29.9064 47.6195 29.8896C47.6195 28.9864 46.8501 28.217 45.9468 28.217C43.0532 28.217 40.1596 28.217 37.2744 28.217C36.873 28.217 36.4632 28.217 36.0617 28.217C35.1585 28.217 34.3891 28.9864 34.3891 29.8896C34.3891 30.9936 34.3891 32.0975 34.3891 33.2014C34.3891 35.8358 34.3891 38.4785 34.3891 41.1128C34.3891 44.3159 34.3891 47.5189 34.3891 50.722C34.3891 53.4818 34.3891 56.2416 34.3891 59.0014C34.3891 60.3478 34.3557 61.7026 34.3891 63.0574C34.3891 63.0742 34.3891 63.0992 34.3891 63.116C34.3891 64.0192 35.1585 64.7886 36.0617 64.7886C38.9553 64.7886 41.849 64.7886 44.7342 64.7886C45.1356 64.7886 45.5454 64.7886 45.9468 64.7886C46.825 64.7886 47.6613 64.0192 47.6195 63.116C47.5776 62.2044 46.8835 61.4434 45.9468 61.4434Z" fill="#343D47"/>
</g>
</g>
<g id="Group_9">
<path id="Vector_9" d="M70.5927 29.8813H60.6992V63.1076H70.5927V29.8813Z" fill="#343D47"/>
<g id="Group_10">
<path id="Vector_10" d="M70.5926 61.4434C67.699 61.4434 64.8054 61.4434 61.9201 61.4434C61.5187 61.4434 61.1089 61.4434 60.7075 61.4434C61.2678 62.0037 61.8198 62.5556 62.3801 63.116C62.3801 62.012 62.3801 60.9081 62.3801 59.8042C62.3801 57.1699 62.3801 54.5271 62.3801 51.8928C62.3801 48.6897 62.3801 45.4867 62.3801 42.2837C62.3801 39.5239 62.3801 36.7641 62.3801 34.0043C62.3801 32.6578 62.4386 31.2946 62.3801 29.9482C62.3801 29.9315 62.3801 29.9064 62.3801 29.8896C61.8198 30.45 61.2678 31.0019 60.7075 31.5623C63.6011 31.5623 66.4947 31.5623 69.38 31.5623C69.7814 31.5623 70.1912 31.5623 70.5926 31.5623C70.0323 31.0019 69.4803 30.45 68.92 29.8896C68.92 30.9936 68.92 32.0975 68.92 33.2014C68.92 35.8358 68.92 38.4785 68.92 41.1128C68.92 44.3159 68.92 47.5189 68.92 50.722C68.92 53.4818 68.92 56.2416 68.92 59.0014C68.92 60.3478 68.8865 61.7026 68.92 63.0574C68.92 63.0742 68.92 63.0992 68.92 63.116C68.92 63.9941 69.6894 64.8304 70.5926 64.7886C71.4958 64.7468 72.2652 64.0526 72.2652 63.116C72.2652 62.012 72.2652 60.9081 72.2652 59.8042C72.2652 57.1699 72.2652 54.5271 72.2652 51.8928C72.2652 48.6897 72.2652 45.4867 72.2652 42.2837C72.2652 39.5239 72.2652 36.7641 72.2652 34.0043C72.2652 32.6578 72.2987 31.303 72.2652 29.9482C72.2652 29.9315 72.2652 29.9064 72.2652 29.8896C72.2652 28.9864 71.4958 28.217 70.5926 28.217C67.699 28.217 64.8054 28.217 61.9201 28.217C61.5187 28.217 61.1089 28.217 60.7075 28.217C59.8043 28.217 59.0349 28.9864 59.0349 29.8896C59.0349 30.9936 59.0349 32.0975 59.0349 33.2014C59.0349 35.8358 59.0349 38.4785 59.0349 41.1128C59.0349 44.3159 59.0349 47.5189 59.0349 50.722C59.0349 53.4818 59.0349 56.2416 59.0349 59.0014C59.0349 60.3478 59.0014 61.7026 59.0349 63.0574C59.0349 63.0742 59.0349 63.0992 59.0349 63.116C59.0349 64.0192 59.8043 64.7886 60.7075 64.7886C63.6011 64.7886 66.4947 64.7886 69.38 64.7886C69.7814 64.7886 70.1912 64.7886 70.5926 64.7886C71.4707 64.7886 72.307 64.0192 72.2652 63.116C72.2234 62.2044 71.5293 61.4434 70.5926 61.4434Z" fill="#343D47"/>
</g>
</g>
</g>
</svg>
