<svg width="58" height="48" viewBox="0 0 58 48" fill="none" xmlns="http://www.w3.org/2000/svg">
<g id="Group">
<g id="Group_2">
<path id="Vector" d="M37.9376 10.0546C37.5181 10.0546 37.1779 9.71585 37.1779 9.29815V4.79169C37.1779 2.98385 35.701 1.51338 33.8858 1.51338H24.0938C22.2785 1.51338 20.8016 2.98431 20.8016 4.79169V9.29815C20.8016 9.71585 20.4615 10.0546 20.0419 10.0546C19.6224 10.0546 19.2822 9.71585 19.2822 9.29815V4.79169C19.2822 2.14938 21.4408 0 24.0938 0H33.8858C36.5387 0 38.6973 2.14938 38.6973 4.79123V9.29769C38.6973 9.71585 38.3571 10.0546 37.9376 10.0546Z" fill="#343D47"/>
<g id="Group_3">
<path id="Vector_2" d="M32.7059 29.1355H25.498V35.16H32.7059V29.1355Z" fill="#343D47"/>
<path id="Vector_3" d="M34.2254 35.9164C34.2254 36.3341 33.8852 36.6729 33.4657 36.6729H24.7384C24.3189 36.6729 23.9787 36.3341 23.9787 35.9164V33.126L2.94689 25.8577L2.90674 45.6766C2.90674 46.9569 3.94105 48 5.21258 48H52.7672C54.0387 48 55.073 46.9569 55.073 45.6752V25.8535L34.2254 33.1154V35.9164Z" fill="#343D47"/>
<path id="Vector_4" d="M55.2994 8.54541H2.68036C1.4162 8.54541 0.374512 9.61249 0.374512 10.8702V23.3673L23.9785 31.5166V28.3791C23.9785 27.9614 24.3187 27.6222 24.7382 27.6222H33.4654C33.885 27.6222 34.2251 27.961 34.2251 28.3786V31.506L57.6053 23.3686V10.8702C57.7784 9.86541 56.8262 8.54541 55.2994 8.54541Z" fill="#018725"/>
</g>
</g>
</g>
</svg>
