<svg width="56" height="56" viewBox="0 0 56 56" fill="none" xmlns="http://www.w3.org/2000/svg">
<g id="Group 5361">
<path id="Vector" d="M20.252 23.2964C20.8502 23.3725 21.4576 23.3301 22.0394 23.1715C22.6212 23.0129 23.1661 22.7413 23.6429 22.3721C24.1198 22.003 24.5192 21.5435 24.8185 21.02C25.1178 20.4965 25.311 19.9191 25.3871 19.3209C25.4633 18.7227 25.4209 18.1153 25.2623 17.5335C25.1037 16.9517 24.8321 16.4068 24.4629 15.93C24.0938 15.4532 23.6343 15.0537 23.1108 14.7544C22.5872 14.4552 22.0099 14.2619 21.4117 14.1858C21.2163 14.1609 21.0195 14.1484 20.8226 14.1483C19.6557 14.1507 18.5336 14.5973 17.684 15.3972C16.8345 16.197 16.3213 17.2903 16.2487 18.4549C16.176 19.6195 16.5494 20.7681 17.293 21.6673C18.0366 22.5665 19.0946 23.149 20.2522 23.2964H20.252Z" fill="#343D47"/>
<path id="Vector_2" d="M35.7479 32.7036C34.9988 32.6083 34.2377 32.6992 33.5321 32.9682C32.8265 33.2373 32.1982 33.6762 31.7027 34.2461C31.2072 34.816 30.86 35.4993 30.6917 36.2354C30.5234 36.9716 30.5392 37.7379 30.7378 38.4665C30.9364 39.195 31.3116 39.8634 31.8302 40.4123C32.3488 40.9613 32.9947 41.3738 33.7108 41.6135C34.427 41.8531 35.1911 41.9125 35.9357 41.7863C36.6802 41.6601 37.3821 41.3522 37.9792 40.8899C38.4573 40.5219 38.8575 40.0627 39.1569 39.5389C39.4563 39.0152 39.6488 38.4372 39.7233 37.8386C39.7995 37.2404 39.7571 36.633 39.5985 36.0512C39.44 35.4694 39.1683 34.9245 38.7992 34.4477C38.43 33.9709 37.9705 33.5714 37.447 33.2722C36.9235 32.9729 36.3461 32.7797 35.7479 32.7036Z" fill="#343D47"/>
<path id="Vector_3" d="M53.4608 21.1764C53.1815 20.1315 53.1153 19.0279 53.0512 17.9609C52.9623 16.4785 52.8781 15.0795 52.2525 13.9982C51.6142 12.8948 50.435 12.1204 49.1868 11.3005C48.3012 10.7188 47.3855 10.1172 46.6339 9.36518C45.8823 8.61316 45.2807 7.69767 44.6986 6.81224C43.8796 5.56431 43.105 4.38529 42.0019 3.74706C40.9205 3.12145 39.5209 3.03731 38.0392 2.94837C36.9721 2.88427 35.8685 2.81812 34.8236 2.5388C33.824 2.27157 32.8629 1.78733 31.9336 1.31902C30.5875 0.640569 29.3161 0 28 0C26.6839 0 25.4125 0.640569 24.0664 1.31888C23.1371 1.7872 22.176 2.27143 21.1764 2.53867C20.1315 2.81798 19.0279 2.88414 17.9609 2.94824C16.4785 3.03718 15.0795 3.12131 13.9982 3.74692C12.8948 4.38529 12.1204 5.56445 11.3005 6.81265C10.7188 7.69822 10.1172 8.61398 9.36518 9.36559C8.61316 10.1172 7.69767 10.7188 6.81224 11.3009C5.56431 12.1204 4.38529 12.895 3.74706 13.9981C3.12145 15.0795 3.03731 16.4791 2.94837 17.9608C2.88427 19.0279 2.81812 20.1315 2.5388 21.1764C2.27157 22.176 1.78733 23.1371 1.31902 24.0664C0.640569 25.4125 0 26.6839 0 28C0 29.3161 0.640569 30.5875 1.31888 31.9336C1.7872 32.8629 2.27143 33.824 2.53867 34.8236C2.81798 35.8685 2.88414 36.9721 2.94824 38.0391C3.03718 39.5215 3.12131 40.9205 3.74692 42.0018C4.38529 43.1052 5.56445 43.8796 6.81265 44.6995C7.69822 45.2812 8.61398 45.8828 9.36559 46.6348C10.1172 47.3868 10.7188 48.3023 11.3009 49.1878C12.1207 50.436 12.8952 51.615 13.9984 52.2534C15.0798 52.879 16.4794 52.9631 17.961 53.052C19.0282 53.1161 20.1317 53.1823 21.1766 53.4616C22.1763 53.7288 23.1373 54.2131 24.0667 54.6814C25.4125 55.3594 26.6839 56 28 56C29.3161 56 30.5875 55.3594 31.9336 54.6811C32.8629 54.2128 33.824 53.7286 34.8236 53.4613C35.8685 53.182 36.9721 53.1159 38.0391 53.0518C39.5215 52.9628 40.9205 52.8787 42.0018 52.2531C43.1052 51.6147 43.8796 50.4356 44.6995 49.1874C45.2812 48.3018 45.8828 47.386 46.6348 46.6344C47.3868 45.8828 48.3023 45.2812 49.1878 44.6991C50.436 43.8793 51.615 43.1048 52.2534 42.0016C52.879 40.9202 52.9631 39.5206 53.052 38.039C53.1161 36.9718 53.1823 35.8683 53.4616 34.8234C53.7288 33.8237 54.2131 32.8627 54.6814 31.9333C55.3594 30.5875 56 29.3161 56 28C56 26.6839 55.3594 25.4125 54.6811 24.0664C54.2128 23.1371 53.7286 22.176 53.4608 21.1764ZM14.6428 17.9529C14.7462 17.1402 15.0087 16.3557 15.4153 15.6444C15.8219 14.9331 16.3647 14.3088 17.0125 13.8073C17.6604 13.3057 18.4007 12.9366 19.1912 12.7212C19.9817 12.5057 20.8069 12.448 21.6196 12.5515C22.4324 12.6549 23.2169 12.9174 23.9282 13.324C24.6395 13.7306 25.2638 14.2734 25.7653 14.9212C26.2669 15.5691 26.636 16.3094 26.8514 17.0999C27.0669 17.8904 27.1245 18.7156 27.0211 19.5284C26.9177 20.3411 26.6551 21.1256 26.2485 21.8369C25.8419 22.5482 25.2992 23.1725 24.6513 23.674C24.0035 24.1756 23.2632 24.5447 22.4727 24.7601C21.6822 24.9756 20.857 25.0333 20.0442 24.9298C19.2315 24.8264 18.447 24.5639 17.7357 24.1573C17.0244 23.7506 16.4001 23.2079 15.8985 22.5601C15.397 21.9122 15.0279 21.1719 14.8124 20.3814C14.597 19.5909 14.5393 18.7657 14.6428 17.9529ZM16.6991 37.79C16.6137 37.8575 16.5158 37.9073 16.411 37.9367C16.3062 37.9661 16.1967 37.9745 16.0886 37.9613C15.9806 37.9481 15.8763 37.9136 15.7816 37.8598C15.687 37.8061 15.604 37.7341 15.5374 37.648C15.4707 37.5619 15.4218 37.4635 15.3935 37.3585C15.3651 37.2534 15.3578 37.1437 15.3721 37.0358C15.3864 36.928 15.4219 36.824 15.4766 36.7299C15.5313 36.6358 15.6041 36.5535 15.6908 36.4877L39.3009 18.2095C39.3863 18.142 39.4842 18.0921 39.589 18.0627C39.6938 18.0333 39.8033 18.025 39.9114 18.0382C40.0194 18.0514 40.1237 18.0859 40.2184 18.1396C40.313 18.1934 40.396 18.2654 40.4626 18.3514C40.5293 18.4375 40.5782 18.5359 40.6065 18.641C40.6349 18.7461 40.6422 18.8557 40.6279 18.9636C40.6136 19.0715 40.5781 19.1755 40.5234 19.2696C40.4687 19.3637 40.3959 19.446 40.3092 19.5117L16.6991 37.79ZM41.3572 38.0471C41.1656 39.551 40.4331 40.9338 39.2965 41.9372C38.1599 42.9405 36.6969 43.4958 35.1808 43.4994C34.9132 43.4993 34.6459 43.4824 34.3804 43.4486C33.1563 43.2928 32.0058 42.7776 31.0745 41.968C30.1433 41.1583 29.473 40.0908 29.1484 38.9002C28.8239 37.7096 28.8597 36.4496 29.2513 35.2793C29.6429 34.1091 30.3727 33.0813 31.3484 32.3259C32.3242 31.5704 33.502 31.1213 34.733 31.0353C35.9641 30.9493 37.1929 31.2302 38.2643 31.8426C39.3356 32.455 40.2013 33.3713 40.7518 34.4757C41.3023 35.5801 41.513 36.8229 41.3572 38.0471Z" fill="#343D47"/>
</g>
</svg>
