<svg width="60" height="56" viewBox="0 0 60 56" fill="none" xmlns="http://www.w3.org/2000/svg">
<g id="Group">
<path id="Vector" d="M29.4402 14.5689C29.4421 11.8837 28.7011 9.25024 27.2991 6.96006C25.8971 4.66988 23.8888 2.81224 21.4964 1.59271C19.1041 0.373185 16.421 -0.160678 13.7441 0.0502026C11.0671 0.261083 8.50069 1.20848 6.32882 2.78756C4.15695 4.36664 2.4643 6.51583 1.4382 8.99729C0.412091 11.4787 0.0925368 14.1957 0.514895 16.8475C0.937254 19.4994 2.08506 21.9826 3.83129 24.0225C5.57751 26.0624 7.85408 27.5794 10.409 28.4057V40.3169H2.5727C2.2758 40.3169 1.99105 40.4349 1.78111 40.6448C1.57117 40.8547 1.45322 41.1395 1.45322 41.4364V48.1533C1.45322 48.4502 1.57117 48.7349 1.78111 48.9449C1.99105 49.1548 2.2758 49.2727 2.5727 49.2727H10.409V54.8701C10.409 55.167 10.527 55.4518 10.7369 55.6617C10.9469 55.8717 11.2316 55.9896 11.5285 55.9896H18.2454C18.5423 55.9896 18.827 55.8717 19.037 55.6617C19.2469 55.4518 19.3649 55.167 19.3649 54.8701V49.2727H27.2012C27.4981 49.2727 27.7829 49.1548 27.9928 48.9449C28.2028 48.7349 28.3207 48.4502 28.3207 48.1533V41.4364C28.3207 41.1395 28.2028 40.8547 27.9928 40.6448C27.7829 40.4349 27.4981 40.3169 27.2012 40.3169H19.3649V28.4057C22.2907 27.4595 24.8417 25.6109 26.6517 23.1251C28.4618 20.6392 29.438 17.6439 29.4402 14.5689ZM14.887 8.97151C15.994 8.97151 17.0762 9.29979 17.9967 9.91484C18.9172 10.5299 19.6346 11.4041 20.0583 12.4269C20.4819 13.4497 20.5928 14.5751 20.3768 15.6609C20.1608 16.7467 19.6277 17.7441 18.8449 18.5269C18.0621 19.3097 17.0647 19.8428 15.979 20.0587C14.8932 20.2747 13.7677 20.1639 12.7449 19.7402C11.7221 19.3166 10.848 18.5991 10.2329 17.6786C9.61785 16.7582 9.28957 15.676 9.28957 14.5689C9.28957 13.0844 9.87929 11.6607 10.929 10.611C11.9787 9.56124 13.4024 8.97151 14.887 8.97151Z" fill="#343D47"/>
<path id="Vector_2" d="M49.5907 27.5996V11.5687L56.8897 15.554C57.0599 15.6523 57.253 15.704 57.4495 15.704C57.646 15.704 57.839 15.6523 58.0092 15.554C58.1776 15.4516 58.3159 15.3066 58.4102 15.1336C58.5046 14.9607 58.5516 14.7658 58.5466 14.5689V7.85199C58.5471 7.65061 58.4933 7.45281 58.3909 7.27943C58.2884 7.10605 58.1411 6.96352 57.9644 6.86685L45.6502 0.149982C45.48 0.0517269 45.2869 0 45.0904 0C44.8939 0 44.7009 0.0517269 44.5307 0.149982L32.2164 6.86685C32.0481 6.96925 31.9098 7.11426 31.8154 7.28723C31.7211 7.46021 31.674 7.65502 31.6791 7.85199V14.5689C31.6791 14.7631 31.7297 14.9541 31.8259 15.1229C31.9221 15.2917 32.0605 15.4325 32.2276 15.5316C32.3978 15.6299 32.5909 15.6816 32.7874 15.6816C32.9839 15.6816 33.1769 15.6299 33.3471 15.5316L40.6349 11.5687V27.5996C37.3362 28.6663 34.5267 30.8757 32.7121 33.8298C30.8976 36.7839 30.1972 40.2888 30.7372 43.7134C31.2772 47.138 33.0219 50.2574 35.6574 52.5098C38.2929 54.7623 41.6459 56 45.1128 56C48.5797 56 51.9328 54.7623 54.5682 52.5098C57.2037 50.2574 58.9485 47.138 59.4885 43.7134C60.0284 40.2888 59.3281 36.7839 57.5135 33.8298C55.699 30.8757 52.8895 28.6663 49.5907 27.5996ZM45.1128 47.0337C44.0058 47.0337 42.9236 46.7055 42.0031 46.0904C41.0826 45.4754 40.3652 44.6012 39.9415 43.5784C39.5179 42.5556 39.407 41.4301 39.623 40.3444C39.839 39.2586 40.3721 38.2612 41.1549 37.4784C41.9377 36.6956 42.935 36.1625 44.0208 35.9465C45.1066 35.7305 46.2321 35.8414 47.2549 36.265C48.2776 36.6887 49.1518 37.4061 49.7669 38.3266C50.3819 39.2471 50.7102 40.3293 50.7102 41.4364C50.7102 42.9209 50.1205 44.3446 49.0708 45.3943C48.0211 46.444 46.5973 47.0337 45.1128 47.0337Z" fill="#018725"/>
</g>
</svg>
