<svg width="86" height="56" viewBox="0 0 86 56" fill="none" xmlns="http://www.w3.org/2000/svg">
<g id="Group 5362">
<path id="Vector" d="M36.9267 30.6429L11.0347 21.9463V41.9801C11.0347 46.1259 13.5009 49.8372 17.3177 51.4347C22.2843 53.5134 30.3811 55.9913 40.7497 55.9913C51.1185 55.9913 59.2149 53.5134 64.1813 51.4347C67.9981 49.8372 70.4647 46.1259 70.4647 41.9801V21.5547L43.406 30.6431C41.3162 31.3448 39.0147 31.3444 36.9267 30.6429Z" fill="#343D47"/>
<path id="Vector_2" d="M81.476 43.1008V16.4903C81.476 15.8987 81.3602 15.3132 81.1356 14.7659C80.9235 14.25 80.6777 13.7139 80.2282 13.3676C77.753 11.4609 42.3148 0.347707 42.3148 0.347707C40.9351 -0.115765 39.3984 -0.115971 38.0187 0.3475L1.95502 12.4607C1.20768 12.7116 0.941162 13.3536 0.941162 13.871C0.941162 14.3883 1.20727 15.0304 1.95502 15.2816L11.0347 18.3312L38.0187 27.3942C39.4029 27.8595 40.9287 27.8595 42.3148 27.3942L70.4646 17.9392L77.0653 15.7222C77.3824 15.6156 77.748 15.7178 77.9268 16.0007C77.928 16.0023 77.929 16.004 77.9301 16.0058C78.0639 16.2197 78.1444 16.453 78.1687 16.7003C78.1741 16.7527 78.177 16.8062 78.177 16.8601V43.0631C74.6916 44.2499 74.3734 49.2162 74.5078 52.1537C74.5894 53.9372 75.8666 55.4434 77.614 55.8161C78.1883 55.9387 78.9799 56 79.7714 56C80.5627 56 81.3542 55.9387 81.9289 55.8161C83.6761 55.4432 84.9532 53.937 85.0347 52.1537C85.167 49.262 84.8613 44.3581 81.476 43.1008Z" fill="#018725"/>
</g>
</svg>
