<svg width="50" height="48" viewBox="0 0 50 48" fill="none" xmlns="http://www.w3.org/2000/svg">
<g id="Group">
<g id="Group_2">
<path id="Vector" d="M3.2002 5.8C3.2002 9 5.8002 11.6 9.0002 11.6C12.2002 11.6 14.8002 9 14.8002 5.8C14.8002 2.6 12.2002 0 9.0002 0C5.8002 0 3.2002 2.6 3.2002 5.8Z" fill="#343D47"/>
<path id="Vector_2" d="M25.0002 11.6C28.2002 11.6 30.8002 9 30.8002 5.8C30.8002 2.6 28.2002 0 25.0002 0C21.8002 0 19.2002 2.6 19.2002 5.8C19.2002 9 21.8002 11.6 25.0002 11.6Z" fill="#018725"/>
<path id="Vector_3" d="M17 19V22H33V19C33 16.4 31.8 13.8 29.2 12.2C28 13 26.4 13.6 25 13.6C23.4 13.6 22 13.2 20.8 12.4C18.4 13.8 17 16.2 17 19Z" fill="#018725"/>
<path id="Vector_4" d="M15 19C15 17.6 15.4 16.2 15.8 15C15.2 13.8 14.4 13 13.2 12.2C12 13.2 10.6 13.6 9 13.6C7.4 13.6 6 13.2 4.8 12.4C2.4 13.8 1 16.2 1 19V22H15V19Z" fill="#343D47"/>
<path id="Vector_5" d="M49 22V19C49 16.4 47.8 13.8 45.2 12.2C42.6 14 39.2 14 36.6 12.2C35.6 12.8 34.6 13.8 34 15C34.6 16.2 34.8 17.6 34.8 19V22H49Z" fill="#343D47"/>
<path id="Vector_6" d="M35.2002 5.8C35.2002 9 37.8002 11.6 41.0002 11.6C44.2002 11.6 46.8002 9 46.8002 5.8C46.8002 2.6 44.2002 0 41.0002 0C37.8002 0 35.2002 2.6 35.2002 5.8Z" fill="#343D47"/>
<path id="Vector_7" d="M43.4001 48C45.0001 48 46.4001 46.6 46.4001 45V32H3.6001V45C3.6001 46.6 5.0001 48 6.6001 48H43.4001Z" fill="#343D47"/>
<path id="Vector_8" d="M47 24H3C1.4 24 0 25.4 0 27C0 28.6 1.4 30 3 30H47C48.6 30 50 28.6 50 27C50 25.4 48.6 24 47 24Z" fill="#018725"/>
</g>
</g>
</svg>
