<svg width="60" height="48" viewBox="0 0 60 48" fill="none" xmlns="http://www.w3.org/2000/svg">
<path id="Vector" d="M28.192 35.6831C28.2095 35.6877 13.5244 31.1831 13.5244 31.1831C10.7495 30.4537 8.02894 32.0866 8.02894 32.0866C8.02894 32.0866 2.25571 35.2208 2.0999 35.3118C0.950559 35.9832 0.816289 36.671 0.816289 38.4836C0.816289 38.6023 0.811035 44.9872 0.811035 44.9872C0.811035 46.8695 1.74035 47.2825 3.17782 46.665L6.77147 44.8498C8.59106 43.8106 10.5928 44.3848 10.5928 44.3848L23.6854 47.8601C25.5477 48.3545 27.2573 47.3795 27.2573 47.3795L44.6682 37.4506C44.6091 37.4842 47.5435 35.7524 46.0161 33.1766C44.3095 30.2988 41.361 31.8649 41.361 31.8649L31.0935 37.6361C31.2488 39.061 30.6445 40.4817 29.5935 41.1748C28.3373 42.0032 26.7384 41.638 26.3195 41.5273C22.6735 40.638 18.9999 39.5938 15.3381 38.6634C15.1295 38.6083 14.8769 38.5784 14.7193 38.6103C14.038 38.6511 13.2893 39.0788 12.754 39.2685C12.4898 39.4194 12.2678 39.1399 12.2169 39.0529C11.9118 38.5308 12.5604 38.3343 12.6925 38.2588C13.441 37.8312 14.0321 37.4355 15.1371 37.6168C19.1066 38.3702 23.1424 39.7301 27.156 40.6421C30.3112 41.4749 31.2819 36.4958 28.192 35.6831ZM18.2156 25.1502C18.2156 28.439 20.8882 31.105 24.1851 31.105C27.482 31.105 30.1545 28.439 30.1545 25.1502C30.1545 21.8614 27.482 19.1954 24.1851 19.1954C20.8882 19.1954 18.2156 21.8614 18.2156 25.1502ZM44.7694 16.3729C44.7694 16.3729 46.1074 15.7271 46.1143 15.7116L58.0172 10.9182C58.8845 10.3843 59.1288 9.82093 59.1894 8.67509V1.5816C59.0421 0.159632 58.2051 -0.155546 56.9653 0.336908L53.8482 1.43974C52.0027 2.06718 50.2497 1.73527 50.2497 1.73527L35.376 0L33.8282 0.135957L24.0546 3.36869L22.839 4.08558L15.7702 11.7688C14.8707 12.8428 15.4477 14.9135 16.7814 15.7345C18.1152 16.5555 19.6115 16.0635 20.6001 14.9737L25.6335 9.53702C26.0347 9.06726 26.5406 8.85846 26.5406 8.85846L32.2098 7.35639C37.6639 6.19648 40.0362 11.1203 40.0362 11.1203L29.7082 13.1214C28.1967 13.5291 27.2672 15.0882 27.632 16.6038C27.632 16.6038 28.5929 19.2176 31.0294 18.6099L43.2238 16.6245L44.7694 16.3729Z" fill="#343D47"/>
</svg>
