<svg width="76" height="80" viewBox="0 0 76 80" fill="none" xmlns="http://www.w3.org/2000/svg">
<g id="Group 5359">
<path id="Vector" d="M66.4081 55.9571C65.9535 56.6474 65.4821 57.3293 64.9854 57.9859C64.5308 57.7418 64.051 57.5145 63.588 57.2872L63.2512 57.4472L62.1316 57.9775L66.1135 62.2793C68.497 59.5946 70.4816 56.5808 72.0064 53.3306L67.5278 55.4436L66.4081 55.9571Z" fill="#343D47"/>
<path id="Vector_2" d="M37.9877 74.9911C39.9609 74.9881 41.931 74.8333 43.8805 74.5281L43.2828 69.9316L43.2492 69.477C42.2208 70.2703 41.0402 70.8435 39.7808 71.1607V55.6793C40.3448 55.6793 40.9004 55.7298 41.4645 55.7635L40.993 52.152C40.589 52.152 40.1512 52.1015 39.7808 52.093V42.8328L39.4356 40.2063L39.7808 40.341V39.2971H53.9826C53.9237 41.4943 53.7553 43.641 53.5028 45.7203L56.9627 47.0673C57.3079 44.4904 57.5103 41.8963 57.5688 39.2971H71.838C71.6152 43.5725 70.581 47.7665 68.7906 51.6553L72.1579 52.9601C75.4968 45.5852 76.3592 37.3277 74.6161 29.422C72.8729 21.5163 68.6179 14.3872 62.4872 9.10021C56.3564 3.81326 48.6792 0.652522 40.6031 0.0904965C32.5271 -0.471529 24.4861 1.59535 17.6821 5.98214C10.8781 10.3689 5.67665 16.84 2.85528 24.4281C0.0339049 32.0161 -0.255832 40.3134 2.02938 48.0798C4.31459 55.8461 9.052 62.6642 15.5334 67.515C22.0148 72.3657 29.8921 74.9884 37.9877 74.9911ZM64.977 17.0304C69.0905 22.4256 71.4816 28.9358 71.838 35.7108H57.6025C57.5033 30.6446 56.8283 25.6061 55.5905 20.6924C58.8474 19.8296 61.9963 18.6011 64.977 17.0304ZM62.603 14.2271C60.0397 15.516 57.3516 16.54 54.5803 17.283C53.9295 15.2977 53.1362 13.362 52.2063 11.4911C51.0891 9.20164 49.6738 7.07011 47.9971 5.15208C53.5639 6.87362 58.5938 9.99887 62.603 14.2271ZM39.7808 3.81356C44.3688 4.96688 48.4433 10.3883 51.053 18.1248C47.3385 18.8637 43.567 19.2806 39.7808 19.3708V3.81356ZM39.7808 22.8981C43.9138 22.8036 48.0301 22.3387 52.0801 21.509C53.2458 26.1565 53.884 30.9205 53.9826 35.7108H39.7808V22.8981ZM13.3723 60.7808C15.9366 59.5006 18.6247 58.4851 21.395 57.7502C22.0419 59.7505 22.8354 61.7005 23.769 63.5841C24.8842 65.8774 26.2997 68.012 27.9782 69.9316C22.4053 68.1888 17.3752 65.0403 13.3723 60.7892V60.7808ZM36.1945 71.1607C31.6065 70.0326 27.532 64.6112 24.9223 56.9084C28.6362 56.1653 32.408 55.7484 36.1945 55.6624V71.1607ZM36.1945 52.0762C32.061 52.1762 27.9448 52.6467 23.8953 53.4821C22.7309 48.8401 22.0927 44.0818 21.9927 39.2971H36.1945V52.0762ZM36.1945 35.694H21.9927C22.1037 30.9108 22.7532 26.1553 23.9289 21.5174C27.9675 22.3499 32.0723 22.8204 36.1945 22.9233V35.694ZM36.1945 3.81356V19.3371C32.4093 19.2576 28.6379 18.852 24.9223 18.1248C27.532 10.3883 31.6065 4.96688 36.1945 3.81356ZM27.9614 5.12683C26.2847 7.04485 24.8694 9.17638 23.7522 11.4659C22.8256 13.3448 22.0378 15.289 21.395 17.283C18.6247 16.5481 15.9366 15.5326 13.3723 14.2524C17.371 10.0081 22.3954 6.86536 27.9614 5.12683ZM10.9899 17.0304C13.9758 18.5962 17.1269 19.8244 20.3848 20.6924C19.147 25.6061 18.472 30.6446 18.3728 35.7108H4.13731C4.49231 28.9369 6.88031 22.4271 10.9899 17.0304ZM4.13731 39.2971H18.3728C18.4721 44.3661 19.1471 49.4074 20.3848 54.3239C17.1279 55.1867 13.979 56.4152 10.9983 57.9859C6.88321 52.5884 4.49205 46.0751 4.13731 39.2971Z" fill="#343D47"/>
<path id="Vector_3" d="M48.679 69.6622L47.5004 71.1102L44.8571 74.3597C48.1515 73.752 51.3486 72.7014 54.3614 71.2365L52.3578 68.1974C51.1603 68.755 49.932 69.244 48.679 69.6622Z" fill="#343D47"/>
<path id="Vector_4" d="M62.3084 55.2752L66.5176 53.2969L60.3974 50.9566L56.626 49.4918L53.1913 48.1532L42.3063 43.944L43.99 56.7905C44.5456 61.0502 45.1012 65.3267 45.6736 69.6622L51.4571 62.5066L57.2321 71.2786L62.965 80L72.4273 72.5834L58.1918 57.2114L62.3084 55.2752Z" fill="#018725"/>
</g>
</svg>
