<svg width="80" height="80" viewBox="0 0 80 80" fill="none" xmlns="http://www.w3.org/2000/svg">
<g id="Layer 2">
<path id="Vector" d="M31.4282 32.2941V34.2855H32.7568L31.4282 32.2941Z" fill="#343D47"/>
<path id="Vector_2" d="M48.5722 47.7057V45.7142H47.2437L48.5722 47.7057Z" fill="#343D47"/>
<path id="Vector_3" d="M31.4282 37.1427V42.857H38.4711L34.6625 37.1427H31.4282Z" fill="#343D47"/>
<path id="Vector_4" d="M45.3369 42.857H48.5712V37.1427H41.5283L45.3369 42.857Z" fill="#343D47"/>
<path id="Vector_5" d="M40 0C32.0888 0 24.3552 2.34596 17.7772 6.74121C11.1992 11.1365 6.07234 17.3836 3.04484 24.6927C0.0173313 32.0017 -0.774802 40.0444 0.768607 47.8036C2.31202 55.5628 6.12164 62.6902 11.7157 68.2843C17.3098 73.8783 24.4372 77.688 32.1964 79.2314C39.9556 80.7748 47.9983 79.9827 55.3073 76.9552C62.6164 73.9277 68.8635 68.8008 73.2588 62.2228C77.654 55.6448 80 47.9112 80 40C79.9887 29.3948 75.7707 19.2273 68.2717 11.7283C60.7727 4.22926 50.6052 0.0113445 40 0ZM60 42.8571C60.3789 42.8571 60.7422 43.0076 61.0102 43.2756C61.2781 43.5435 61.4286 43.9068 61.4286 44.2857C61.4286 44.6646 61.2781 45.028 61.0102 45.2959C60.7422 45.5638 60.3789 45.7143 60 45.7143H54.2857V57.1428C54.2859 57.7561 54.0887 58.3531 53.7233 58.8456C53.358 59.3382 52.8439 59.7001 52.257 59.8779C51.6701 60.0557 51.0415 60.04 50.4643 59.833C49.887 59.626 49.3916 59.2388 49.0514 58.7286L40.3772 45.7143H31.4286V57.1428C31.4286 57.9006 31.1276 58.6273 30.5917 59.1632C30.0559 59.699 29.3292 60 28.5714 60C27.8137 60 27.087 59.699 26.5511 59.1632C26.0153 58.6273 25.7143 57.9006 25.7143 57.1428V45.7143H20C19.6211 45.7143 19.2578 45.5638 18.9899 45.2959C18.722 45.028 18.5714 44.6646 18.5714 44.2857C18.5714 43.9068 18.722 43.5435 18.9899 43.2756C19.2578 43.0076 19.6211 42.8571 20 42.8571H25.7143V37.1428H20C19.6211 37.1428 19.2578 36.9923 18.9899 36.7244C18.722 36.4565 18.5714 36.0932 18.5714 35.7143C18.5714 35.3354 18.722 34.972 18.9899 34.7041C19.2578 34.4362 19.6211 34.2857 20 34.2857H25.7143V22.8571C25.7142 22.2439 25.9113 21.6469 26.2767 21.1543C26.642 20.6618 27.1562 20.2999 27.7431 20.1221C28.33 19.9443 28.9585 19.96 29.5358 20.167C30.113 20.374 30.6084 20.7612 30.9486 21.2714L39.6229 34.2857H48.5714V22.8571C48.5714 22.0994 48.8725 21.3727 49.4083 20.8368C49.9441 20.301 50.6708 20 51.4286 20C52.1863 20 52.9131 20.301 53.4489 20.8368C53.9847 21.3727 54.2857 22.0994 54.2857 22.8571V34.2857H60C60.3789 34.2857 60.7422 34.4362 61.0102 34.7041C61.2781 34.972 61.4286 35.3354 61.4286 35.7143C61.4286 36.0932 61.2781 36.4565 61.0102 36.7244C60.7422 36.9923 60.3789 37.1428 60 37.1428H54.2857V42.8571H60Z" fill="#343D47"/>
</g>
</svg>
